<?xml version="1.0" encoding="iso-8859-1"?>
<!-- Generator: Adobe Illustrator 16.0.4, SVG Export Plug-In . SVG Version: 6.00 Build 0)  -->
<!DOCTYPE svg PUBLIC "-//W3C//DTD SVG 1.1//EN" "http://www.w3.org/Graphics/SVG/1.1/DTD/svg11.dtd">
<svg version="1.1" id="Layer_1" xmlns="http://www.w3.org/2000/svg" xmlns:xlink="http://www.w3.org/1999/xlink" x="0px" y="0px"
	 width="59.744px" height="27.952px" viewBox="0 0 59.744 27.952" style="enable-background:new 0 0 59.744 27.952;"
	 xml:space="preserve">
<path style="fill:none;stroke:#DB4398;stroke-linecap:round;stroke-miterlimit:10;" d="M21.379,18.148
	c-0.791,0.176-5.176,6.045-5.176,6.045l-2.654-5.91l-2.637,5.329l-2.209-5.048c0,0-3.879-0.991-7.253,2.893
	c0,0-1.389-14.719,13.723-19.468c0,0-0.959,10.67,8.083,11.695l0.064,0.009c-2.628-6.547,2.534-10.528,2.534-10.528l1.442,5.493
	c3.271-1.772,5.709-0.369,5.709-0.369l0.636-4.576c4.281,4.038,2.844,10.27,2.844,10.27c9.042-1.026,8.084-11.696,8.084-11.696
	c15.11,4.749,13.723,19.468,13.723,19.468c-3.374-3.883-7.254-2.893-7.254-2.893l-2.208,5.049l-2.638-5.33l-2.654,5.91
	c0,0-3.081-6.865-4.553-6.176c-1.474,0.689,3.429,7.312-7.866,7.748C19.603,26.507,22.17,17.972,21.379,18.148z"/>
<g>
</g>
<g>
</g>
<g>
</g>
<g>
</g>
<g>
</g>
<g>
</g>
</svg>
