<?xml version="1.0" encoding="iso-8859-1"?>
<!-- Generator: Adobe Illustrator 16.0.4, SVG Export Plug-In . SVG Version: 6.00 Build 0)  -->
<!DOCTYPE svg PUBLIC "-//W3C//DTD SVG 1.1//EN" "http://www.w3.org/Graphics/SVG/1.1/DTD/svg11.dtd">
<svg version="1.1" id="Layer_1" xmlns="http://www.w3.org/2000/svg" xmlns:xlink="http://www.w3.org/1999/xlink" x="0px" y="0px"
	 width="3264px" height="2448px" viewBox="0 0 3264 2448" style="enable-background:new 0 0 3264 2448;" xml:space="preserve">
<path style="fill:none;stroke:#D44798;stroke-miterlimit:10;" d="M877.363,1713.906v30.355l186.518,2.53l16.715-26.14l92.285-0.652
	l57.54-46.581l57.343-9.557c0,0,7.59,7.87,36.262,7.027c28.672-0.844,37.948-7.87,37.948-7.87l65.662-2.108l5.073,10.409
	l0.538,19.867L1603.88,1690l14-30l50.054-6.817l36.946-4.183l105-4.003l14.692,8.393l59.263,5.009l11.537,6.009l16.023-0.844
	l71.622,1.995l16.022-7.59l94.506,4.356l62.902-1.923l-0.727,13.793l33.158,60.139l186.867,0.624l3.758-41.319L2360.881,1550
	l-22.404-31.933l8.404-396.067l11.396-364.168h-12.648v-63.023h-26.969l-0.846,63.023h-11.809l-0.837,44.76l-44.286-0.281v-14.336
	c0,0-37.502-32.975-110.648-34.078c-85.852-1.294-123.402,29.28-123.402,29.28l-0.279,17.869l-37.453,0.422v-44.296l-51.596-0.398
	L1937.5,837.7l-495.142-4.194l-21.086-1.687l2.277-83.484l-502.001-46l11.333,438l16.667,375.333l-27.333,28.666L877.363,1713.906z"
	/>
</svg>
