<?xml version="1.0" encoding="iso-8859-1"?>
<!-- Generator: Adobe Illustrator 16.0.4, SVG Export Plug-In . SVG Version: 6.00 Build 0)  -->
<!DOCTYPE svg PUBLIC "-//W3C//DTD SVG 1.1//EN" "http://www.w3.org/Graphics/SVG/1.1/DTD/svg11.dtd">
<svg version="1.1" xmlns="http://www.w3.org/2000/svg" xmlns:xlink="http://www.w3.org/1999/xlink" x="0px" y="0px" width="3264px"
	 height="2448px" viewBox="0 0 3264 2448" style="enable-background:new 0 0 3264 2448;" xml:space="preserve">
<g id="photo">
</g>
<g id="Layer_2">
	<path style="fill:none;stroke:#D44799;stroke-miterlimit:10;" d="M842.88,1599l-26-444l-30-502l578,50l20-2l34,4v10l-34,14l2,70
		l20,2l12-6l510,2v-68v-18l80-4v14l-6,35l31-3v-19c0,0,82-35,158-35s129,39,129,39v17h28v-48c0,0,12,4,12,0s0-54,0-54h49v51h16
		l-13,422l-10,494l-16,275l-25-8l-193-2l-2-50l5-26l-3-12l-49,4l-9-7l-100-4l-19,9l-51-1l-19,1l-12-7l-11,14l-75-28l-118-1l-24,8
		l-18,2l-7-6l-24.88,8l-40.12,5l-32,31l-187,8l-6-32l-50-3c0,0-19,12-53,13s-40-10-40-10s-24,5-42,6s-24,0-24,0s6,9-33,23l-37,6
		l-14,26l-93-1l-36,34l-224,5v-47l80-202l43-38l-1-9V1599z"/>
	<g>
	</g>
	<g>
	</g>
	<g>
	</g>
	<g>
	</g>
	<g>
	</g>
	<g>
	</g>
</g>
</svg>
