<?xml version="1.0" encoding="iso-8859-1"?>
<!-- Generator: Adobe Illustrator 16.0.4, SVG Export Plug-In . SVG Version: 6.00 Build 0)  -->
<!DOCTYPE svg PUBLIC "-//W3C//DTD SVG 1.1//EN" "http://www.w3.org/Graphics/SVG/1.1/DTD/svg11.dtd">
<svg version="1.1" id="Layer_1" xmlns="http://www.w3.org/2000/svg" xmlns:xlink="http://www.w3.org/1999/xlink" x="0px" y="0px"
	 width="3264px" height="2448px" viewBox="0 0 3264 2448" style="enable-background:new 0 0 3264 2448;" xml:space="preserve">

<g>
	<path style="fill:none;stroke:#D44799;stroke-miterlimit:10;" d="M978.948,631.119l573.949,60.763l2.969,82.146l0.032,0.89l0.887,0.071l25.005,2l0.277,0.022
		l0.25-0.125l11.779-5.89l516.758,10.969l1.021,0.021v-1.021l0.004-94.957l57.907,0.457l-4.403,51.451l-0.094,1.097l1.101-0.012
		l46.497-0.5l0.845-0.009l0.133-0.834l2.925-18.509c2.91-1.543,20.257-10.548,45.177-19.456
		C2307.496,683.416,2342.79,680,2364.38,680c39.024,0,69.781,11.612,88.712,21.354c18.651,9.598,29.8,19.312,31.767,21.087V739
		v0.992l0.992,0.008l42.021,0.333l0.987,0.008l0.021-0.987l0.973-47.351h13.022h0.98l0.02-0.98l0.983-50.02h30.001v50v1h1h13.967
		l-12.947,414.972l-11.998,474.984l-11.194,274.831l-18.972-1.705l-0.035-0.003l-0.034-0.001l-188.812-3.854l-1.966-58.989
		l2.676-23.802l0.009-0.079l-0.004-0.081l-0.684-14.126l-0.055-1.121l-1.106,0.183l-49.185,8.104L2188,1750.123l-0.278-0.029
		l-0.253,0.12l-18.788,8.899l-50.765-0.996h-0.036l-0.036,0.002l-18.728,0.985l-13.438-6.999l-0.43-0.224l-0.442,0.198
		l-22.618,10.161l-66.608-25.85l-0.17-0.065l-0.183-0.002l-105-1l-0.063-0.001l-0.063,0.008l-99.001,11.668l-0.114,0.014
		l-0.107,0.039l-26.836,9.665l-0.188,0.068l-0.147,0.134l-39.543,36.071l-174.672-0.926l-0.611-22.592l-0.006-0.216l-0.095-0.195
		l-6.016-12.344l-0.288-0.59l-0.656,0.029l-55.316,2.5l-0.31,0.016l-0.247,0.185c-0.109,0.081-11.275,8.157-44.428,9.132
		c-1.683,0.05-3.353,0.075-4.965,0.075c-28.946,0-37.211-8.025-37.287-8.103l-0.365-0.379l-0.519,0.087l-68,11.333l-0.225,0.037
		l-0.187,0.132l-86.383,60.811l-90.654-4.981l-0.379-0.021l-0.297,0.236l-38.721,30.775l-200.657-2.98v-34.824l73.818-189.533
		l48.738-32.884l0.472-0.319l-0.033-0.568l-27-458L978.948,631.119 M977.88,630l29.997,508.941l27,458L985.88,1630l-74,190v35.997
		l202,3l39-30.997l91,5l86.667-61.011l68-11.333c0,0,8.108,8.408,38.006,8.408c1.602,0,3.267-0.024,4.995-0.075
		c34-1,45-9.333,45-9.333l55.316-2.5l6.016,12.344l0.638,23.56l176.031,0.933l39.831-36.334l26.836-9.666l99.001-11.668l105,1
		l66.999,26.001l23-10.333l13.681,7.125l19-1l51,1l19-9l107.652,11.207l49.316-8.127l0.684,14.127l-2.684,23.873l2,60.01
		l189.76,3.874l20.018,1.799L2565.88,1582l11.999-475l12.979-415.997h-14.999v-51h-31.981l-1.003,51h-14.002l-0.993,48.33
		L2485.858,739v-17c0,0-45.479-43-121.479-43s-148.5,39.5-148.5,39.5l-3.003,19l-46.497,0.5l4.496-52.527L2110.88,685l-0.004,95.965
		l-517.006-10.974l-12,6l-25.005-2l-3.001-83.013L977.88,630L977.88,630z"/>
	<g>
	</g>
	<g>
	</g>
	<g>
	</g>
	<g>
	</g>
	<g>
	</g>
	<g>
	</g>
</g>
</svg>
