<?xml version="1.0" encoding="iso-8859-1"?>
<!-- Generator: Adobe Illustrator 16.0.4, SVG Export Plug-In . SVG Version: 6.00 Build 0)  -->
<!DOCTYPE svg PUBLIC "-//W3C//DTD SVG 1.1//EN" "http://www.w3.org/Graphics/SVG/1.1/DTD/svg11.dtd">
<svg version="1.1" xmlns="http://www.w3.org/2000/svg" xmlns:xlink="http://www.w3.org/1999/xlink" x="0px" y="0px" width="3264px"
	 height="2448px" viewBox="0 0 3264 2448" style="enable-background:new 0 0 3264 2448;" xml:space="preserve">
<g id="photo">
</g>
<g id="Layer_2">
	<g>
		<path style="fill:#D44799;" d="M807.015,660.223l559.657,55.767l0.394,0.039l0.379-0.114l19.601-5.884l22.815,2.738v3.734
			l-28.57,8.568l-1.466,0.439l0.041,1.53l2,75.005l0.048,1.797l1.792,0.144l25.005,2l0.555,0.044l0.499-0.249l11.558-5.779
			l516.511,10.963l2.042,0.043v-2.043l0.004-93.949l55.819,0.439l-4.312,50.374l-0.188,2.194l2.202-0.023l46.497-0.5l1.69-0.019
			l0.264-1.669l2.847-18.014c3.907-2.05,20.777-10.648,44.604-19.165C2134.698,712.406,2169.869,709,2191.38,709
			c38.789,0,69.365,11.532,88.185,21.207c17.732,9.115,28.65,18.338,31.293,20.681V767v1.984l1.984,0.016l42.022,0.333l1.975,0.016
			l0.041-1.975l0.952-46.371h12.043h1.961l0.039-1.96l0.964-49.04h28.021v49v2h2h12.936l-12.915,413.947l-11.998,474.969
			l-11.152,273.781l-17.926-1.611l-0.068-0.006l-0.069-0.002l-187.865-3.835l-1.932-57.971l2.667-23.728l0.018-0.16l-0.007-0.16
			l-0.684-14.127l-0.108-2.241l-2.214,0.364l-48.879,8.055l-16.239-4.547l-0.195-0.055l-0.202-0.015l-90.985-6.54l-0.524-0.037
			l-0.475,0.225l-18.575,8.799l-50.53-0.991l-0.072-0.001l-0.072,0.004l-18.455,0.972l-13.197-6.873l-0.859-0.448l-0.884,0.397
			l-22.236,9.99l-66.22-25.698l-0.34-0.132l-0.365-0.004l-105-1l-0.308-0.003l-0.294,0.09l-49.216,14.993l-6.155-5.862l-1.031-0.982
			l-1.266,0.653l-18.52,9.561l-21.639-6.691l-0.639-0.198l-0.629,0.227l-26.836,9.666l-0.375,0.136l-0.294,0.269l-39.253,35.808
			l-173.314-0.918l-0.585-21.625l-0.011-0.433l-0.19-0.389l-6.016-12.344l-0.575-1.182l-1.312,0.06l-55.316,2.5l-0.618,0.035
			l-0.49,0.361c-0.108,0.079-11.164,7.974-43.861,8.936c-1.673,0.049-3.333,0.074-4.936,0.074c-28.343,0-36.505-7.736-36.567-7.797
			l-0.759-0.786l-1.072,0.214c-0.099,0.02-10.102,1.985-27.72,2.964c-18.06,1.004-39.613,8.13-40.521,8.433l-0.337,0.112
			l-0.277,0.221c-0.21,0.168-21.167,16.809-31.035,19.995c-2.679,0.865-6.351,1.304-10.914,1.304
			c-8.869,0-18.014-1.687-18.105-1.703l-1.356-0.253l-0.718,1.178l-24.377,39.992l-89.805-4.935l-0.759-0.042l-0.595,0.474
			l-38.44,30.552l-199.315-2.96v-33.651l73.637-189.066l48.479-32.709l0.945-0.638l-0.067-1.138l-27-458L807.015,660.223
			 M804.88,658l29.997,508.941l27,458L812.88,1658l-74,190v35.997l202,3l39-30.997l91,5l25-41.014c0,0,9.301,1.737,18.472,1.737
			c4.164,0,8.302-0.358,11.529-1.4c10.333-3.337,31.667-20.334,31.667-20.334s22-7.333,40-8.333s28-3,28-3s8.108,8.408,38.006,8.408
			c1.601,0,3.266-0.024,4.995-0.075c34-1,45-9.333,45-9.333l55.316-2.5l6.016,12.344l0.638,23.56l176.032,0.933l39.831-36.334
			l26.836-9.666l22.42,6.934l19.247-9.936l7,6.667l50.333-15.333l105,1l67,26.001l23-10.333l13.681,7.125l19-1l51,1l19-9
			l90.985,6.54l16.667,4.667l49.316-8.127l0.684,14.127l-2.684,23.873l2,60.01l189.76,3.874l20.018,1.799L2392.88,1610l11.999-475
			l12.979-415.997h-14.999v-51h-31.981l-1.003,51h-14.002l-0.993,48.33L2312.858,767v-17c0,0-45.479-43-121.479-43
			s-148.5,39.5-148.5,39.5l-3.003,19l-46.497,0.5l4.496-52.527L1937.88,713l-0.004,95.965l-517.006-10.974l-12,6l-25.005-2
			l-2-75.005l29.996-8.995v-6.997l-24.991-2.999l-20,6.004L804.88,658L804.88,658z"/>
	</g>
	<g>
	</g>
	<g>
	</g>
	<g>
	</g>
	<g>
	</g>
	<g>
	</g>
	<g>
	</g>
</g>
</svg>
